<?xml version="1.0" standalone="no"?>
<!DOCTYPE svg PUBLIC "-//W3C//DTD SVG 20010904//EN"
 "http://www.w3.org/TR/2001/REC-SVG-20010904/DTD/svg10.dtd">
<svg version="1.0" xmlns="http://www.w3.org/2000/svg"
 width="300.000000pt" height="300.000000pt" viewBox="0 0 300.000000 300.000000"
 preserveAspectRatio="xMidYMid meet">
<metadata>
Created by potrace 1.11, written by Peter Selinger 2001-2013
</metadata>
<g transform="translate(0.000000,300.000000) scale(0.100000,-0.100000)"
fill="#000000" stroke="none">
<path d="M220 2991 c-93 -29 -166 -97 -200 -188 -20 -53 -20 -74 -19 -1301 0
-923 4 -1255 12 -1279 25 -69 89 -142 151 -173 l59 -30 1267 0 1267 0 61 31
c69 34 104 71 138 144 l24 50 0 1265 0 1265 -25 53 c-30 65 -73 106 -150 143
l-60 29 -1250 -1 c-687 0 -1261 -4 -1275 -8z m690 -2095 c0 -2 -8 -10 -17 -17
-16 -13 -17 -12 -4 4 13 16 21 21 21 13z m-110 -111 c-7 -8 -16 -15 -21 -15
-5 0 -1 8 9 18 20 22 31 19 12 -3z m-30 -28 c0 -2 -12 -14 -27 -28 l-28 -24
24 28 c23 25 31 32 31 24z m-80 -82 c-13 -14 -27 -25 -31 -25 -4 0 4 13 19 28
15 15 29 26 31 25 3 -2 -6 -14 -19 -28z m-40 -38 c0 -1 -107 -108 -237 -237
l-238 -235 235 238 c218 220 240 242 240 234z"/>
</g>
</svg>
